<mxfile host="app.diagrams.net" modified="2023-07-17T09:20:42.721Z" agent="Mozilla/5.0 (X11; Linux x86_64; rv:109.0) Gecko/20100101 Firefox/114.0" etag="6RtTdXBsiaTgjMwAnMPl" version="21.6.1" type="github">
  <diagram name="Page-1" id="oujaw5Og8ZjzXnW1-tWX">
    <mxGraphModel dx="730" dy="423" grid="1" gridSize="10" guides="1" tooltips="1" connect="1" arrows="1" fold="1" page="1" pageScale="1" pageWidth="850" pageHeight="1100" math="0" shadow="0">
      <root>
        <mxCell id="0" />
        <mxCell id="1" parent="0" />
        <mxCell id="b3DKTW9h6tUCR0ElXmK6-1" value="&lt;font style=&quot;font-size: 16px;&quot;&gt;Users&lt;/font&gt;" style="rounded=0;whiteSpace=wrap;html=1;fillColor=#F8B9D4;strokeColor=#b85450;" vertex="1" parent="1">
          <mxGeometry x="360" y="200" width="80" height="60" as="geometry" />
        </mxCell>
        <mxCell id="b3DKTW9h6tUCR0ElXmK6-3" value="&lt;font style=&quot;font-size: 16px;&quot;&gt;Sysfs&lt;/font&gt;" style="rounded=0;whiteSpace=wrap;html=1;fillColor=#F8B9D4;" vertex="1" parent="1">
          <mxGeometry x="360" y="310" width="80" height="60" as="geometry" />
        </mxCell>
        <mxCell id="b3DKTW9h6tUCR0ElXmK6-4" value="&lt;font style=&quot;font-size: 16px;&quot;&gt;Kernel&lt;/font&gt;" style="rounded=0;whiteSpace=wrap;html=1;fillColor=#F8B9D4;" vertex="1" parent="1">
          <mxGeometry x="460" y="400" width="80" height="60" as="geometry" />
        </mxCell>
        <mxCell id="b3DKTW9h6tUCR0ElXmK6-5" value="&lt;font style=&quot;font-size: 16px;&quot;&gt;File System&lt;br&gt;&lt;/font&gt;" style="rounded=0;whiteSpace=wrap;html=1;fillColor=#F8B9D4;" vertex="1" parent="1">
          <mxGeometry x="260" y="400" width="80" height="60" as="geometry" />
        </mxCell>
        <mxCell id="b3DKTW9h6tUCR0ElXmK6-6" value="&lt;font style=&quot;font-size: 16px;&quot;&gt;Hardware&lt;/font&gt;" style="rounded=0;whiteSpace=wrap;html=1;fillColor=#F8B9D4;" vertex="1" parent="1">
          <mxGeometry x="360" y="480" width="80" height="60" as="geometry" />
        </mxCell>
        <mxCell id="b3DKTW9h6tUCR0ElXmK6-7" value="Read/Write" style="endArrow=none;html=1;rounded=0;entryX=0;entryY=1;entryDx=0;entryDy=0;exitX=0.5;exitY=0;exitDx=0;exitDy=0;" edge="1" parent="1" source="b3DKTW9h6tUCR0ElXmK6-5" target="b3DKTW9h6tUCR0ElXmK6-3">
          <mxGeometry width="50" height="50" relative="1" as="geometry">
            <mxPoint x="320" y="420" as="sourcePoint" />
            <mxPoint x="370" y="370" as="targetPoint" />
          </mxGeometry>
        </mxCell>
        <mxCell id="b3DKTW9h6tUCR0ElXmK6-8" value="Interact" style="endArrow=none;html=1;rounded=0;entryX=1;entryY=1;entryDx=0;entryDy=0;exitX=0.5;exitY=0;exitDx=0;exitDy=0;" edge="1" parent="1" source="b3DKTW9h6tUCR0ElXmK6-4" target="b3DKTW9h6tUCR0ElXmK6-3">
          <mxGeometry width="50" height="50" relative="1" as="geometry">
            <mxPoint x="320" y="420" as="sourcePoint" />
            <mxPoint x="370" y="370" as="targetPoint" />
          </mxGeometry>
        </mxCell>
        <mxCell id="b3DKTW9h6tUCR0ElXmK6-9" value="Interact" style="endArrow=none;html=1;rounded=0;exitX=0;exitY=0;exitDx=0;exitDy=0;entryX=0.5;entryY=1;entryDx=0;entryDy=0;" edge="1" parent="1" source="b3DKTW9h6tUCR0ElXmK6-6" target="b3DKTW9h6tUCR0ElXmK6-5">
          <mxGeometry width="50" height="50" relative="1" as="geometry">
            <mxPoint x="320" y="420" as="sourcePoint" />
            <mxPoint x="370" y="370" as="targetPoint" />
          </mxGeometry>
        </mxCell>
        <mxCell id="b3DKTW9h6tUCR0ElXmK6-10" value="Manage Resources" style="endArrow=none;html=1;rounded=0;exitX=1;exitY=0;exitDx=0;exitDy=0;entryX=0.5;entryY=1;entryDx=0;entryDy=0;" edge="1" parent="1" source="b3DKTW9h6tUCR0ElXmK6-6" target="b3DKTW9h6tUCR0ElXmK6-4">
          <mxGeometry width="50" height="50" relative="1" as="geometry">
            <mxPoint x="320" y="420" as="sourcePoint" />
            <mxPoint x="370" y="370" as="targetPoint" />
          </mxGeometry>
        </mxCell>
        <mxCell id="b3DKTW9h6tUCR0ElXmK6-11" value="Sycall" style="endArrow=none;html=1;rounded=0;entryX=0.5;entryY=1;entryDx=0;entryDy=0;exitX=0.5;exitY=0;exitDx=0;exitDy=0;" edge="1" parent="1" source="b3DKTW9h6tUCR0ElXmK6-3" target="b3DKTW9h6tUCR0ElXmK6-1">
          <mxGeometry width="50" height="50" relative="1" as="geometry">
            <mxPoint x="320" y="420" as="sourcePoint" />
            <mxPoint x="370" y="370" as="targetPoint" />
          </mxGeometry>
        </mxCell>
      </root>
    </mxGraphModel>
  </diagram>
</mxfile>
